<svg xmlns="http://www.w3.org/2000/svg" xmlns:xlink="http://www.w3.org/1999/xlink" viewBox="0, 0, 400,400"><g id="svgg"><path id="path0" d="M85.656 74.465 C 85.582 84.159,85.549 99.132,85.583 107.738 L 85.645 123.387 114.434 106.911 C 130.269 97.849,143.250 90.409,143.281 90.378 C 143.325 90.334,91.873 60.305,86.900 57.473 L 85.790 56.840 85.656 74.465 M283.200 74.878 C 267.464 84.142,254.620 91.805,254.656 91.906 C 254.742 92.147,312.150 124.634,312.273 124.511 C 312.352 124.432,311.917 58.175,311.837 58.070 C 311.822 58.050,298.935 65.613,283.200 74.878 M174.076 250.244 C 174.340 250.701,180.335 261.094,187.398 273.340 C 194.461 285.586,200.256 295.625,200.276 295.648 C 200.304 295.680,226.496 250.338,226.900 249.561 C 226.942 249.480,214.966 249.414,200.286 249.414 L 173.596 249.414 174.076 250.244 " stroke="none" fill="#fb9b9b" fill-rule="evenodd"></path><path id="path1" d="M278.133 44.555 L 218.097 79.149 214.468 78.824 C 203.963 77.883,194.648 77.913,184.608 78.920 L 180.641 79.318 179.823 78.857 C 179.372 78.604,152.522 63.297,120.155 44.841 C 87.787 26.386,61.281 11.317,61.251 11.356 C 61.222 11.394,61.373 45.176,61.588 86.426 L 61.978 161.426 60.271 164.822 C 29.160 226.730,43.675 303.222,95.363 349.747 C 170.088 417.009,286.980 397.752,336.279 310.059 C 361.078 265.947,362.504 210.215,339.984 165.332 L 338.416 162.207 338.462 86.084 C 338.488 43.016,338.434 9.961,338.338 9.961 C 338.245 9.961,311.152 25.528,278.133 44.555 M114.607 73.493 C 130.321 82.647,143.187 90.225,143.199 90.332 C 143.220 90.534,85.871 123.438,85.498 123.438 C 85.348 123.438,85.325 119.277,85.417 109.050 C 85.488 101.137,85.547 86.151,85.547 75.749 C 85.547 60.745,85.597 56.837,85.791 56.843 C 85.925 56.847,98.892 64.340,114.607 73.493 M311.916 58.545 C 311.917 58.840,312.049 73.841,312.209 91.879 C 312.368 109.917,312.470 124.705,312.434 124.741 C 312.398 124.776,299.299 117.409,283.324 108.369 C 267.349 99.329,254.349 91.863,254.434 91.778 C 254.662 91.552,311.595 58.027,311.768 58.017 C 311.848 58.012,311.915 58.250,311.916 58.545 M251.953 165.245 C 261.947 166.841,269.788 176.701,269.030 186.719 C 267.678 204.581,246.203 212.561,233.789 199.813 C 220.054 185.708,232.444 162.129,251.953 165.245 M156.738 165.800 C 170.877 169.279,177.161 185.870,168.799 197.642 C 158.123 212.674,134.731 207.140,131.712 188.867 C 129.389 174.811,142.868 162.387,156.738 165.800 M227.009 249.365 C 227.118 249.567,200.533 295.545,200.305 295.548 C 200.096 295.551,173.645 249.839,173.638 249.463 C 173.632 249.188,226.861 249.090,227.009 249.365 " stroke="none" fill="#040404" fill-rule="evenodd"></path><path id="path2" d="M245.082 165.318 C 228.805 168.206,222.363 188.178,233.928 199.902 C 246.707 212.857,268.945 203.740,268.945 185.547 C 268.945 172.932,257.388 163.134,245.082 165.318 M150.000 165.428 C 133.830 167.125,125.940 185.956,136.085 198.636 C 146.250 211.341,166.662 207.460,171.540 191.895 C 175.903 177.972,164.458 163.911,150.000 165.428 " stroke="none" fill="#04c3eb" fill-rule="evenodd"></path><path id="path3" d="M85.637 65.625 C 85.637 70.513,85.662 72.512,85.693 70.068 C 85.724 67.625,85.724 63.625,85.693 61.182 C 85.662 58.738,85.637 60.737,85.637 65.625 M312.000 73.535 C 312.000 76.650,312.027 77.897,312.060 76.306 C 312.093 74.715,312.093 72.167,312.060 70.642 C 312.027 69.118,312.000 70.420,312.000 73.535 M312.196 97.070 C 312.196 100.239,312.223 101.536,312.255 99.951 C 312.288 98.367,312.288 95.774,312.255 94.189 C 312.223 92.605,312.196 93.901,312.196 97.070 M85.442 113.867 C 85.442 119.185,85.467 121.360,85.498 118.701 C 85.529 116.042,85.529 111.692,85.498 109.033 C 85.467 106.375,85.442 108.550,85.442 113.867 M312.350 119.787 C 312.314 123.596,312.252 124.603,312.061 124.495 C 311.867 124.385,311.866 124.410,312.057 124.617 C 312.482 125.074,312.508 124.754,312.451 119.804 L 312.395 114.941 312.350 119.787 M200.255 249.365 C 220.344 249.403,226.941 249.471,226.836 249.640 C 226.750 249.780,226.784 249.812,226.926 249.724 C 227.673 249.262,225.307 249.222,200.233 249.267 L 173.535 249.315 200.255 249.365 " stroke="none" fill="#5f3a3a" fill-rule="evenodd"></path><path id="path4" d="M150.439 165.369 C 150.627 165.418,150.935 165.418,151.123 165.369 C 151.311 165.320,151.157 165.280,150.781 165.280 C 150.405 165.280,150.251 165.320,150.439 165.369 M152.979 165.369 C 153.167 165.418,153.474 165.418,153.662 165.369 C 153.850 165.320,153.696 165.280,153.320 165.280 C 152.944 165.280,152.791 165.320,152.979 165.369 M137.390 171.338 L 136.816 171.973 137.451 171.399 C 137.800 171.083,138.086 170.798,138.086 170.764 C 138.086 170.613,137.925 170.746,137.390 171.338 M227.975 184.180 C 227.975 184.556,228.015 184.709,228.064 184.521 C 228.113 184.333,228.113 184.026,228.064 183.838 C 228.015 183.650,227.975 183.804,227.975 184.180 M131.491 184.766 C 131.491 185.142,131.531 185.295,131.580 185.107 C 131.629 184.919,131.629 184.612,131.580 184.424 C 131.531 184.236,131.491 184.390,131.491 184.766 M172.523 185.742 C 172.523 186.440,172.559 186.726,172.602 186.377 C 172.646 186.028,172.646 185.457,172.602 185.107 C 172.559 184.758,172.523 185.044,172.523 185.742 M268.995 185.449 C 268.997 185.879,269.037 186.032,269.083 185.789 C 269.130 185.546,269.128 185.194,269.080 185.007 C 269.031 184.821,268.992 185.020,268.995 185.449 M227.975 186.914 C 227.975 187.290,228.015 187.444,228.064 187.256 C 228.113 187.068,228.113 186.760,228.064 186.572 C 228.015 186.384,227.975 186.538,227.975 186.914 M131.491 187.109 C 131.491 187.485,131.531 187.639,131.580 187.451 C 131.629 187.263,131.629 186.956,131.580 186.768 C 131.531 186.580,131.491 186.733,131.491 187.109 M151.614 206.390 C 151.911 206.435,152.350 206.434,152.591 206.387 C 152.831 206.341,152.588 206.304,152.051 206.306 C 151.514 206.307,151.317 206.345,151.614 206.390 " stroke="none" fill="#044d5b" fill-rule="evenodd"></path></g></svg>