<svg xmlns="http://www.w3.org/2000/svg" xmlns:xlink="http://www.w3.org/1999/xlink" viewBox="0, 0, 400,400"><g id="svgg"><path id="path0" d="M278.041 44.570 L 218.094 79.140 214.760 78.831 C 204.194 77.854,192.228 77.958,182.470 79.110 L 180.663 79.323 146.337 59.753 C 127.458 48.990,100.605 33.679,86.663 25.730 C 72.722 17.780,61.285 11.310,61.249 11.351 C 61.213 11.392,61.363 45.145,61.583 86.358 L 61.982 161.291 60.112 165.069 C 30.483 224.947,42.392 297.021,89.748 344.428 C 155.579 410.329,264.368 404.027,322.298 330.957 C 359.591 283.918,366.539 219.382,340.111 165.505 L 338.472 162.163 338.475 86.062 C 338.478 25.097,338.430 9.965,338.234 9.980 C 338.099 9.991,311.012 25.556,278.041 44.570 M109.997 70.866 C 123.244 78.583,136.172 86.112,138.727 87.598 C 141.282 89.084,143.303 90.363,143.219 90.440 C 142.938 90.698,85.529 123.485,85.488 123.412 C 85.365 123.196,85.704 56.836,85.827 56.836 C 85.874 56.836,96.750 63.150,109.997 70.866 M311.913 61.865 C 311.912 66.650,312.266 109.963,312.376 118.408 C 312.420 121.871,312.381 124.609,312.285 124.609 C 312.154 124.609,254.579 92.107,254.340 91.898 C 254.310 91.872,266.087 84.905,280.512 76.416 C 294.936 67.926,307.837 60.320,309.180 59.512 C 310.522 58.704,311.687 58.035,311.768 58.026 C 311.848 58.016,311.914 59.744,311.913 61.865 M253.320 165.599 C 273.282 170.799,274.380 198.454,254.883 204.961 C 239.361 210.142,224.325 195.672,228.833 179.892 C 231.821 169.432,242.995 162.909,253.320 165.599 M154.199 165.436 C 169.493 167.162,177.543 184.401,169.030 197.195 C 161.400 208.663,144.605 209.355,136.000 198.557 C 124.753 184.442,136.306 163.416,154.199 165.436 M145.737 186.457 C 145.775 186.655,145.937 186.816,146.096 186.816 C 146.515 186.816,146.455 186.249,146.027 186.167 C 145.766 186.116,145.687 186.196,145.737 186.457 M226.953 249.526 C 226.953 249.587,221.385 259.277,214.579 271.059 C 207.773 282.841,201.784 293.214,201.270 294.110 L 200.336 295.739 199.988 295.184 C 199.395 294.239,173.633 249.574,173.633 249.492 C 173.633 249.449,185.630 249.414,200.293 249.414 C 214.956 249.414,226.953 249.464,226.953 249.526 " stroke="none" fill="#244c73" fill-rule="evenodd"></path><path id="path1" d="M85.658 89.973 C 85.579 108.182,85.558 123.123,85.610 123.175 C 85.695 123.260,142.638 90.792,143.024 90.439 C 143.108 90.363,141.086 89.084,138.532 87.598 C 119.149 76.325,86.546 57.334,86.211 57.124 L 85.801 56.866 85.658 89.973 M307.129 60.860 C 304.658 62.316,291.795 69.887,278.544 77.684 C 255.959 90.975,254.480 91.878,254.911 92.111 C 255.164 92.248,268.159 99.604,283.789 108.459 C 299.419 117.314,312.234 124.535,312.268 124.507 C 312.372 124.419,311.892 66.339,311.753 62.163 L 311.621 58.213 307.129 60.860 M174.977 251.709 C 175.710 252.971,181.609 263.188,188.086 274.414 C 194.563 285.640,199.969 294.979,200.098 295.169 C 200.301 295.466,202.136 292.392,213.388 272.903 C 220.567 260.468,226.567 250.095,226.720 249.854 L 226.998 249.414 200.321 249.414 L 173.644 249.414 174.977 251.709 " stroke="none" fill="#fb9c9c" fill-rule="evenodd"></path><path id="path2" d="M244.987 165.315 C 228.517 168.463,222.315 188.421,234.163 200.152 C 245.972 211.844,266.349 204.976,268.760 188.491 C 270.760 174.812,258.390 162.753,244.987 165.315 M149.609 165.453 C 135.642 167.051,127.469 182.127,133.686 194.824 C 140.593 208.930,160.341 210.255,169.030 197.195 C 178.681 182.691,166.922 163.472,149.609 165.453 M146.387 186.526 C 146.387 186.945,145.819 186.884,145.737 186.457 C 145.687 186.196,145.766 186.116,146.027 186.167 C 146.225 186.205,146.387 186.366,146.387 186.526 " stroke="none" fill="#04c3eb" fill-rule="evenodd"></path><path id="path3" d="M85.637 75.781 C 85.637 80.454,85.662 82.366,85.693 80.029 C 85.724 77.693,85.724 73.870,85.693 71.533 C 85.662 69.197,85.637 71.108,85.637 75.781 M311.996 78.906 C 311.996 81.001,312.025 81.858,312.060 80.811 C 312.095 79.763,312.095 78.049,312.060 77.002 C 312.025 75.955,311.996 76.812,311.996 78.906 M312.191 102.246 C 312.191 104.287,312.220 105.096,312.255 104.043 C 312.290 102.990,312.290 101.320,312.255 100.332 C 312.219 99.344,312.191 100.205,312.191 102.246 M85.416 122.168 C 85.417 122.920,85.452 123.204,85.494 122.798 C 85.536 122.393,85.536 121.778,85.493 121.431 C 85.449 121.084,85.415 121.416,85.416 122.168 M312.372 123.145 C 312.372 124.004,312.407 124.331,312.448 123.872 C 312.489 123.412,312.489 122.709,312.447 122.309 C 312.405 121.909,312.371 122.285,312.372 123.145 " stroke="none" fill="#71606f" fill-rule="evenodd"></path><path id="path4" d="M311.793 61.035 C 311.794 62.324,311.825 62.826,311.864 62.151 C 311.902 61.475,311.901 60.420,311.863 59.807 C 311.824 59.193,311.793 59.746,311.793 61.035 M311.989 84.961 C 311.989 86.304,312.021 86.853,312.059 86.182 C 312.097 85.510,312.097 84.412,312.059 83.740 C 312.021 83.069,311.989 83.618,311.989 84.961 M85.632 89.355 C 85.632 92.256,85.659 93.470,85.693 92.053 C 85.726 90.636,85.726 88.263,85.693 86.779 C 85.660 85.296,85.632 86.455,85.632 89.355 M312.184 108.105 C 312.184 109.395,312.216 109.896,312.254 109.221 C 312.292 108.545,312.292 107.491,312.253 106.877 C 312.215 106.264,312.184 106.816,312.184 108.105 " stroke="none" fill="#c38185" fill-rule="evenodd"></path></g></svg>