<svg xmlns="http://www.w3.org/2000/svg" xmlns:xlink="http://www.w3.org/1999/xlink" viewBox="0, 0, 400,400"><g id="svgg"><path id="path0" d="M85.649 89.952 C 85.569 108.166,85.551 123.116,85.610 123.175 C 85.706 123.271,142.644 90.811,143.028 90.442 C 143.115 90.359,140.390 88.664,136.973 86.674 C 104.937 68.020,86.911 57.517,86.403 57.207 L 85.795 56.836 85.649 89.952 M283.416 74.801 C 267.903 83.930,255.046 91.511,254.844 91.647 C 254.519 91.866,257.759 93.752,283.342 108.233 C 299.218 117.219,312.236 124.543,312.271 124.510 C 312.382 124.404,311.886 63.905,311.750 60.986 L 311.621 58.202 283.416 74.801 M173.870 249.854 C 174.026 250.095,180.026 260.470,187.205 272.908 C 194.384 285.347,200.321 295.454,200.398 295.369 C 200.500 295.258,217.549 265.780,226.892 249.561 C 226.938 249.480,214.964 249.414,200.282 249.414 L 173.588 249.414 173.870 249.854 " stroke="none" fill="#fb9b9b" fill-rule="evenodd"></path><path id="path1" d="M278.041 44.570 L 218.094 79.140 214.760 78.831 C 204.194 77.854,192.228 77.958,182.470 79.110 L 180.663 79.323 146.337 59.753 C 127.458 48.990,100.605 33.679,86.663 25.730 C 72.722 17.780,61.285 11.310,61.249 11.351 C 61.213 11.392,61.363 45.145,61.583 86.358 L 61.982 161.291 60.112 165.069 C 30.483 224.947,42.392 297.021,89.748 344.428 C 155.579 410.329,264.368 404.027,322.298 330.957 C 359.591 283.918,366.539 219.382,340.111 165.505 L 338.472 162.163 338.475 86.062 C 338.478 25.097,338.430 9.965,338.234 9.980 C 338.099 9.991,311.012 25.556,278.041 44.570 M109.997 70.866 C 123.244 78.583,136.172 86.112,138.727 87.598 C 141.282 89.084,143.303 90.363,143.219 90.440 C 142.939 90.696,85.529 123.485,85.488 123.412 C 85.365 123.191,85.703 56.836,85.827 56.836 C 85.874 56.836,96.750 63.150,109.997 70.866 M311.913 61.768 C 311.911 66.296,312.265 109.905,312.373 118.506 C 312.415 121.863,312.375 124.609,312.284 124.609 C 312.157 124.609,254.597 92.113,254.341 91.897 C 254.311 91.872,265.869 85.036,280.024 76.705 C 294.180 68.374,307.080 60.767,308.691 59.801 C 310.303 58.834,311.687 58.035,311.768 58.025 C 311.848 58.016,311.914 59.700,311.913 61.768 M253.809 165.713 C 269.469 170.266,274.218 189.514,262.403 200.547 C 250.078 212.058,230.005 204.464,228.104 187.571 C 226.532 173.601,240.394 161.813,253.809 165.713 M156.154 165.706 C 173.994 169.501,178.451 192.883,163.250 202.932 C 151.845 210.472,136.148 204.678,132.335 191.523 C 128.070 176.803,141.235 162.532,156.154 165.706 M226.953 249.525 C 226.953 249.585,220.962 260.004,213.639 272.678 L 200.324 295.721 199.982 295.175 C 199.390 294.230,173.633 249.573,173.633 249.491 C 173.633 249.449,185.630 249.414,200.293 249.414 C 214.956 249.414,226.953 249.464,226.953 249.525 " stroke="none" fill="#1c242c" fill-rule="evenodd"></path><path id="path2" d="M245.410 165.240 C 228.880 167.792,222.243 188.227,234.095 200.079 C 245.880 211.864,266.342 205.023,268.760 188.491 C 270.737 174.969,258.879 163.162,245.410 165.240 M149.621 165.453 C 135.616 167.076,127.462 182.105,133.685 194.824 C 140.581 208.917,160.348 210.244,169.029 197.197 C 178.676 182.699,166.907 163.451,149.621 165.453 " stroke="none" fill="#04c3eb" fill-rule="evenodd"></path><path id="path3" d="M85.635 73.730 C 85.635 77.383,85.661 78.849,85.693 76.989 C 85.725 75.130,85.725 72.141,85.693 70.349 C 85.661 68.556,85.634 70.078,85.635 73.730 M311.992 78.027 C 311.992 79.639,312.023 80.272,312.059 79.434 C 312.096 78.597,312.096 77.279,312.059 76.505 C 312.022 75.731,311.992 76.416,311.992 78.027 M312.187 101.465 C 312.188 103.076,312.218 103.709,312.255 102.872 C 312.291 102.035,312.291 100.716,312.254 99.942 C 312.217 99.168,312.187 99.854,312.187 101.465 M85.414 122.266 C 85.414 122.964,85.450 123.250,85.493 122.900 C 85.536 122.551,85.536 121.980,85.493 121.631 C 85.450 121.282,85.414 121.567,85.414 122.266 M312.370 123.242 C 312.370 124.048,312.405 124.377,312.447 123.975 C 312.489 123.572,312.489 122.913,312.447 122.510 C 312.405 122.107,312.370 122.437,312.370 123.242 " stroke="none" fill="#714e52" fill-rule="evenodd"></path><path id="path4" d="M311.790 60.059 C 311.791 61.133,311.823 61.547,311.863 60.980 C 311.903 60.412,311.902 59.533,311.862 59.027 C 311.822 58.520,311.790 58.984,311.790 60.059 M85.633 85.840 C 85.633 88.955,85.660 90.202,85.693 88.611 C 85.726 87.020,85.726 84.471,85.693 82.947 C 85.660 81.423,85.633 82.725,85.633 85.840 M311.990 83.301 C 311.990 84.697,312.021 85.243,312.059 84.513 C 312.097 83.784,312.096 82.641,312.058 81.974 C 312.020 81.307,311.990 81.904,311.990 83.301 M312.185 106.641 C 312.185 107.983,312.216 108.533,312.254 107.861 C 312.292 107.190,312.292 106.091,312.254 105.420 C 312.216 104.749,312.185 105.298,312.185 106.641 " stroke="none" fill="#966264" fill-rule="evenodd"></path></g></svg>