<svg xmlns="http://www.w3.org/2000/svg" xmlns:xlink="http://www.w3.org/1999/xlink" viewBox="0, 0, 400,400"><g id="svgg"><path id="path0" d="M278.127 44.559 L 218.086 79.156 214.658 78.834 C 204.215 77.852,192.249 77.955,182.465 79.110 C 180.719 79.317,180.624 79.308,179.829 78.860 C 179.375 78.605,152.522 63.297,120.154 44.841 C 87.787 26.386,61.277 11.318,61.244 11.356 C 61.210 11.394,61.361 45.176,61.578 86.426 L 61.974 161.426 60.211 164.941 C 42.208 200.844,39.051 243.829,51.598 282.227 C 74.953 353.699,145.240 398.250,219.824 388.854 C 282.129 381.006,334.024 335.814,350.565 275.000 C 360.463 238.613,356.606 198.555,340.012 165.378 L 338.472 162.299 338.475 86.130 C 338.477 44.237,338.409 9.961,338.324 9.961 C 338.239 9.961,311.150 25.530,278.127 44.559 M106.589 68.873 C 117.950 75.493,130.874 83.023,135.308 85.606 C 139.742 88.189,143.302 90.366,143.218 90.444 C 143.031 90.619,86.072 123.203,85.709 123.342 C 85.493 123.425,85.457 119.317,85.494 99.172 C 85.537 76.157,85.704 56.836,85.860 56.836 C 85.899 56.836,95.227 62.253,106.589 68.873 M311.913 61.475 C 311.912 66.434,312.277 110.383,312.383 118.127 C 312.458 123.627,312.430 124.623,312.200 124.572 C 311.732 124.469,254.317 91.907,254.420 91.803 C 254.590 91.634,311.614 58.048,311.768 58.028 C 311.848 58.017,311.914 59.568,311.913 61.475 M253.613 165.614 C 268.841 169.793,274.155 188.409,263.327 199.641 C 251.099 212.325,230.052 205.105,228.076 187.549 C 226.516 173.689,240.202 161.933,253.613 165.614 M155.200 165.525 C 170.148 167.949,177.553 185.369,168.832 197.591 C 158.404 212.205,135.607 207.500,131.920 189.974 C 128.990 176.046,141.174 163.250,155.200 165.525 M226.892 249.683 C 226.835 249.830,222.578 257.235,217.431 266.138 C 212.285 275.040,206.334 285.338,204.207 289.021 C 202.080 292.704,200.302 295.680,200.256 295.634 C 200.127 295.504,173.633 249.593,173.633 249.498 C 173.633 249.452,185.639 249.414,200.314 249.414 C 222.871 249.414,226.979 249.456,226.892 249.683 " stroke="none" fill="#fbdba3" fill-rule="evenodd"></path><path id="path1" d="M245.280 165.327 C 229.186 167.964,222.453 187.633,233.587 199.488 C 243.686 210.241,261.600 207.052,267.329 193.481 C 273.524 178.803,260.958 162.757,245.280 165.327 M148.169 165.733 C 132.369 168.873,126.105 188.221,137.161 199.737 C 149.711 212.809,171.465 204.824,172.403 186.801 C 173.086 173.678,161.012 163.181,148.169 165.733 " stroke="none" fill="#04c4eb" fill-rule="evenodd"></path><path id="path2" d="M85.664 65.869 C 85.398 85.077,85.429 123.450,85.709 123.342 C 86.072 123.203,143.031 90.619,143.218 90.444 C 143.302 90.366,139.742 88.189,135.308 85.606 C 130.874 83.023,117.950 75.493,106.589 68.873 C 95.227 62.253,85.899 56.836,85.860 56.836 C 85.821 56.836,85.732 60.901,85.664 65.869 M283.070 74.877 C 267.366 84.133,254.474 91.750,254.420 91.803 C 254.317 91.907,311.732 124.469,312.200 124.572 C 312.430 124.623,312.458 123.627,312.383 118.127 C 312.277 110.383,311.912 66.434,311.913 61.475 C 311.914 59.568,311.848 58.017,311.768 58.028 C 311.687 58.038,298.773 65.621,283.070 74.877 M173.633 249.498 C 173.633 249.593,200.127 295.504,200.256 295.634 C 200.302 295.680,202.080 292.704,204.207 289.021 C 206.334 285.338,212.285 275.040,217.431 266.138 C 222.578 257.235,226.835 249.830,226.892 249.683 C 226.979 249.456,222.871 249.414,200.314 249.414 C 185.639 249.414,173.633 249.452,173.633 249.498 " stroke="none" fill="#fb9c9b" fill-rule="evenodd"></path><path id="path3" d="M172.519 185.742 C 172.519 186.333,172.556 186.575,172.601 186.279 C 172.646 185.984,172.646 185.500,172.601 185.205 C 172.556 184.910,172.519 185.151,172.519 185.742 M151.711 206.388 C 151.954 206.435,152.306 206.433,152.493 206.384 C 152.679 206.335,152.480 206.297,152.051 206.299 C 151.621 206.301,151.468 206.341,151.711 206.388 " stroke="none" fill="#9dd4c0" fill-rule="evenodd"></path><path id="path4" d="M151.611 165.374 C 151.907 165.419,152.390 165.419,152.686 165.374 C 152.981 165.330,152.739 165.293,152.148 165.293 C 151.558 165.293,151.316 165.330,151.611 165.374 M233.974 171.045 L 233.301 171.777 234.033 171.104 C 234.715 170.478,234.855 170.313,234.706 170.313 C 234.674 170.313,234.344 170.642,233.974 171.045 M227.988 185.547 C 227.988 186.138,228.025 186.379,228.070 186.084 C 228.114 185.789,228.114 185.305,228.070 185.010 C 228.025 184.714,227.988 184.956,227.988 185.547 M131.501 185.840 C 131.503 186.377,131.541 186.573,131.585 186.277 C 131.630 185.980,131.629 185.540,131.583 185.300 C 131.536 185.060,131.500 185.303,131.501 185.840 M137.492 200.244 C 138.301 201.106,138.477 201.262,138.477 201.115 C 138.477 201.084,138.059 200.666,137.549 200.187 L 136.621 199.316 137.492 200.244 M166.492 200.244 L 165.918 200.879 166.553 200.305 C 166.902 199.990,167.188 199.704,167.188 199.670 C 167.188 199.520,167.026 199.652,166.492 200.244 " stroke="none" fill="#55ccd4" fill-rule="evenodd"></path></g></svg>