<svg xmlns="http://www.w3.org/2000/svg" xmlns:xlink="http://www.w3.org/1999/xlink" viewBox="0, 0, 400,400"><g id="svgg"><path id="path0" d="M245.020 165.339 C 228.697 168.398,222.363 188.215,233.967 199.924 C 246.436 212.506,268.015 204.273,268.883 186.604 C 269.528 173.475,257.727 162.959,245.020 165.339 M150.098 165.431 C 132.978 167.048,125.384 188.028,137.512 200.201 C 148.376 211.107,166.976 206.567,171.543 191.895 C 175.873 177.983,164.592 164.062,150.098 165.431 " stroke="none" fill="#04c4ec" fill-rule="evenodd"></path><path id="path1" d="M278.126 44.556 L 218.089 79.150 214.562 78.830 C 204.036 77.875,193.567 77.937,183.441 79.015 L 180.652 79.312 178.461 78.071 C 177.256 77.389,150.403 62.082,118.789 44.056 C 87.175 26.031,61.283 11.315,61.251 11.354 C 61.219 11.394,61.370 45.176,61.585 86.426 L 61.977 161.426 60.213 164.941 C 33.113 218.948,40.542 285.578,78.885 332.422 C 141.834 409.325,258.217 409.325,321.113 332.422 C 359.336 285.687,366.864 219.062,339.991 165.338 L 338.431 162.219 338.465 86.090 C 338.483 43.744,338.424 9.961,338.330 9.961 C 338.238 9.961,311.146 25.529,278.126 44.556 M111.483 71.703 C 125.524 79.880,138.446 87.406,140.199 88.428 C 141.952 89.449,143.315 90.355,143.227 90.441 C 143.016 90.645,85.689 123.438,85.542 123.438 C 85.397 123.438,85.515 61.486,85.666 58.838 C 85.729 57.737,85.819 56.836,85.867 56.836 C 85.914 56.836,97.442 63.526,111.483 71.703 M311.921 60.986 C 311.924 62.625,312.049 77.632,312.197 94.336 C 312.346 111.040,312.449 124.725,312.427 124.747 C 312.405 124.769,299.311 117.387,283.329 108.341 C 257.279 93.599,254.309 91.869,254.648 91.644 C 255.521 91.064,311.634 58.035,311.768 58.022 C 311.848 58.014,311.917 59.348,311.921 60.986 M253.906 165.690 C 272.308 171.149,274.422 195.910,257.186 204.100 C 248.437 208.257,237.588 205.512,232.000 197.726 C 223.193 185.458,229.599 168.677,244.336 165.408 C 246.809 164.860,251.583 165.000,253.906 165.690 M155.176 165.522 C 170.150 167.957,177.568 185.348,168.846 197.571 C 158.053 212.696,134.557 207.127,131.710 188.770 C 129.619 175.285,141.688 163.328,155.176 165.522 M226.889 249.690 C 226.801 249.918,211.038 277.276,201.125 294.404 C 200.699 295.140,200.283 295.667,200.200 295.576 C 199.993 295.348,173.633 249.651,173.633 249.520 C 173.633 249.462,185.639 249.414,200.314 249.414 C 223.199 249.414,226.980 249.453,226.889 249.690 " stroke="none" fill="#fbfbfb" fill-rule="evenodd"></path><path id="path2" d="M85.656 77.590 C 85.582 89.002,85.549 103.975,85.583 110.863 L 85.645 123.385 114.258 106.996 C 129.995 97.982,142.977 90.544,143.107 90.467 C 143.283 90.361,97.325 63.381,86.906 57.473 L 85.790 56.840 85.656 77.590 M283.321 74.802 C 267.654 84.025,254.752 91.654,254.651 91.755 C 254.537 91.869,265.367 98.107,283.324 108.271 C 299.194 117.254,312.222 124.562,312.273 124.511 C 312.352 124.432,311.916 58.175,311.836 58.069 C 311.821 58.049,298.989 65.579,283.321 74.802 M173.852 249.854 C 173.981 250.095,175.202 252.227,176.566 254.590 C 177.930 256.953,183.815 267.148,189.643 277.246 C 195.471 287.344,200.256 295.624,200.275 295.647 C 200.315 295.693,200.348 295.637,215.802 268.870 C 221.935 258.247,226.953 249.524,226.953 249.485 C 226.953 249.446,214.953 249.414,200.286 249.414 L 173.619 249.414 173.852 249.854 " stroke="none" fill="#fb9c9c" fill-rule="evenodd"></path><path id="path3" d="M150.539 165.373 C 150.782 165.419,151.134 165.417,151.321 165.369 C 151.507 165.320,151.309 165.281,150.879 165.284 C 150.449 165.286,150.296 165.326,150.539 165.373 M152.979 165.369 C 153.167 165.418,153.474 165.418,153.662 165.369 C 153.850 165.320,153.696 165.280,153.320 165.280 C 152.944 165.280,152.791 165.320,152.979 165.369 M137.390 171.338 L 136.816 171.973 137.451 171.399 C 137.800 171.083,138.086 170.798,138.086 170.764 C 138.086 170.613,137.925 170.746,137.390 171.338 M227.975 184.375 C 227.975 184.751,228.015 184.905,228.064 184.717 C 228.113 184.529,228.113 184.221,228.064 184.033 C 228.015 183.845,227.975 183.999,227.975 184.375 M131.491 184.766 C 131.491 185.142,131.531 185.295,131.580 185.107 C 131.629 184.919,131.629 184.612,131.580 184.424 C 131.531 184.236,131.491 184.390,131.491 184.766 M172.521 185.840 C 172.523 186.484,172.559 186.725,172.602 186.373 C 172.646 186.022,172.645 185.495,172.600 185.202 C 172.556 184.908,172.520 185.195,172.521 185.840 M268.991 185.547 C 268.991 185.923,269.031 186.077,269.080 185.889 C 269.129 185.701,269.129 185.393,269.080 185.205 C 269.031 185.017,268.991 185.171,268.991 185.547 M131.491 186.914 C 131.491 187.290,131.531 187.444,131.580 187.256 C 131.629 187.068,131.629 186.760,131.580 186.572 C 131.531 186.384,131.491 186.538,131.491 186.914 M233.398 199.512 C 233.763 199.888,234.105 200.195,234.159 200.195 C 234.212 200.195,233.958 199.888,233.594 199.512 C 233.229 199.136,232.887 198.828,232.834 198.828 C 232.780 198.828,233.034 199.136,233.398 199.512 M151.709 206.388 C 151.951 206.434,152.346 206.434,152.588 206.388 C 152.830 206.341,152.632 206.303,152.148 206.303 C 151.665 206.303,151.467 206.341,151.709 206.388 " stroke="none" fill="#95e6f5" fill-rule="evenodd"></path><path id="path4" d="M85.637 68.164 C 85.637 73.374,85.662 75.505,85.693 72.900 C 85.724 70.295,85.724 66.033,85.693 63.428 C 85.662 60.823,85.637 62.954,85.637 68.164 M311.997 75.195 C 311.997 77.505,312.025 78.450,312.060 77.295 C 312.094 76.140,312.094 74.250,312.060 73.096 C 312.025 71.941,311.997 72.886,311.997 75.195 M312.192 98.730 C 312.192 100.986,312.221 101.882,312.255 100.722 C 312.290 99.561,312.290 97.715,312.255 96.620 C 312.220 95.525,312.192 96.475,312.192 98.730 M85.437 118.066 C 85.438 121.074,85.465 122.277,85.498 120.740 C 85.531 119.203,85.531 116.742,85.497 115.271 C 85.464 113.801,85.437 115.059,85.437 118.066 M312.385 121.484 C 312.385 123.364,312.414 124.133,312.450 123.193 C 312.486 122.253,312.486 120.715,312.450 119.775 C 312.414 118.835,312.385 119.604,312.385 121.484 " stroke="none" fill="#dcc4c4" fill-rule="evenodd"></path></g></svg>