<svg xmlns="http://www.w3.org/2000/svg" xmlns:xlink="http://www.w3.org/1999/xlink" viewBox="0, 0, 400,400"><g id="svgg"><path id="path0" d="M278.148 44.556 L 218.113 79.151 214.476 78.825 C 203.912 77.879,194.728 77.908,184.598 78.922 L 180.621 79.320 178.152 77.913 C 176.795 77.139,149.947 61.833,118.491 43.899 C 87.035 25.966,61.275 11.322,61.246 11.359 C 61.216 11.396,61.369 45.176,61.585 86.426 L 61.977 161.426 60.373 164.617 C 29.001 227.046,43.764 303.844,96.094 350.440 C 163.005 410.018,265.700 401.421,321.804 331.543 C 359.577 284.497,366.703 218.656,339.829 165.009 L 338.429 162.214 338.464 86.088 C 338.483 44.218,338.428 9.961,338.341 9.961 C 338.255 9.962,311.168 25.529,278.148 44.556 M110.690 71.257 C 124.308 79.189,137.234 86.716,139.416 87.984 C 141.597 89.252,143.311 90.356,143.224 90.437 C 143.025 90.623,86.114 123.187,85.731 123.334 C 85.486 123.428,85.455 120.014,85.496 97.219 C 85.540 73.008,85.685 56.836,85.859 56.836 C 85.899 56.836,97.072 63.325,110.690 71.257 M311.914 60.791 C 311.913 65.168,312.281 108.847,312.388 117.139 C 312.452 122.037,312.418 124.609,312.290 124.609 C 311.985 124.609,254.307 91.917,254.418 91.806 C 254.592 91.632,311.615 58.044,311.768 58.025 C 311.848 58.016,311.914 59.260,311.914 60.791 M253.906 165.690 C 267.557 169.740,273.331 185.253,265.544 196.956 C 259.347 206.269,246.321 208.857,237.109 202.604 C 222.047 192.379,226.525 169.334,244.336 165.406 C 246.812 164.860,251.588 165.002,253.906 165.690 M156.836 165.835 C 170.896 169.434,177.144 185.943,168.846 197.571 C 158.076 212.664,134.741 207.194,131.711 188.867 C 129.382 174.774,142.997 162.293,156.836 165.835 M226.897 249.670 C 226.810 249.895,221.957 258.316,204.831 287.952 C 202.359 292.229,200.275 295.656,200.198 295.569 C 200.122 295.482,195.370 287.280,189.639 277.344 C 183.908 267.407,177.963 257.101,176.426 254.441 C 174.890 251.781,173.633 249.562,173.633 249.510 C 173.633 249.457,185.639 249.414,200.314 249.414 C 222.245 249.414,226.977 249.460,226.897 249.670 " stroke="none" fill="#fbfbbb" fill-rule="evenodd"></path><path id="path1" d="M245.752 165.234 C 228.666 167.647,222.049 188.764,234.682 200.562 C 245.849 210.990,264.322 205.576,268.297 190.709 C 271.998 176.866,259.931 163.231,245.752 165.234 M148.067 165.721 C 135.154 168.635,128.195 181.787,133.202 193.815 C 137.188 203.391,148.432 208.531,158.247 205.265 C 177.496 198.861,176.983 171.957,157.500 166.094 C 155.328 165.440,150.209 165.238,148.067 165.721 " stroke="none" fill="#04c4eb" fill-rule="evenodd"></path><path id="path2" d="M85.665 63.916 C 85.384 80.232,85.432 123.449,85.731 123.334 C 86.114 123.187,143.025 90.623,143.224 90.437 C 143.311 90.356,141.597 89.252,139.416 87.984 C 137.234 86.716,124.308 79.189,110.690 71.257 C 97.072 63.325,85.899 56.836,85.859 56.836 C 85.820 56.836,85.733 60.022,85.665 63.916 M283.069 74.875 C 267.365 84.133,254.472 91.752,254.418 91.806 C 254.307 91.917,311.985 124.609,312.290 124.609 C 312.418 124.609,312.452 122.037,312.388 117.139 C 312.281 108.847,311.913 65.168,311.914 60.791 C 311.914 59.260,311.848 58.016,311.768 58.025 C 311.687 58.035,298.773 65.618,283.069 74.875 M338.358 154.883 C 338.358 156.333,338.389 156.926,338.426 156.201 C 338.464 155.476,338.464 154.290,338.426 153.564 C 338.389 152.839,338.358 153.433,338.358 154.883 M173.633 249.510 C 173.633 249.562,174.890 251.781,176.426 254.441 C 177.963 257.101,183.908 267.407,189.639 277.344 C 195.370 287.280,200.122 295.482,200.198 295.569 C 200.275 295.656,202.359 292.229,204.831 287.952 C 221.957 258.316,226.810 249.895,226.897 249.670 C 226.977 249.460,222.245 249.414,200.314 249.414 C 185.639 249.414,173.633 249.457,173.633 249.510 " stroke="none" fill="#fb9c9b" fill-rule="evenodd"></path><path id="path3" d="M137.390 171.338 L 136.816 171.973 137.451 171.399 C 137.800 171.083,138.086 170.798,138.086 170.764 C 138.086 170.613,137.925 170.746,137.390 171.338 M172.521 185.840 C 172.523 186.484,172.559 186.725,172.602 186.373 C 172.646 186.022,172.645 185.495,172.600 185.202 C 172.556 184.908,172.520 185.195,172.521 185.840 M268.991 185.547 C 268.991 185.923,269.031 186.077,269.080 185.889 C 269.129 185.701,269.129 185.393,269.080 185.205 C 269.031 185.017,268.991 185.171,268.991 185.547 M151.709 206.388 C 151.951 206.434,152.346 206.434,152.588 206.388 C 152.830 206.341,152.632 206.303,152.148 206.303 C 151.665 206.303,151.467 206.341,151.709 206.388 " stroke="none" fill="#98e2ce" fill-rule="evenodd"></path><path id="path4" d="M151.514 165.376 C 151.863 165.419,152.434 165.419,152.783 165.376 C 153.132 165.332,152.847 165.297,152.148 165.297 C 151.450 165.297,151.165 165.332,151.514 165.376 M233.878 171.143 L 233.105 171.973 233.936 171.201 C 234.708 170.483,234.855 170.313,234.708 170.313 C 234.676 170.313,234.302 170.686,233.878 171.143 M227.992 185.547 C 227.992 186.245,228.028 186.531,228.071 186.182 C 228.114 185.833,228.114 185.261,228.071 184.912 C 228.028 184.563,227.992 184.849,227.992 185.547 M131.506 185.840 C 131.507 186.484,131.543 186.725,131.587 186.373 C 131.630 186.022,131.629 185.495,131.585 185.202 C 131.540 184.908,131.505 185.195,131.506 185.840 M233.984 200.098 C 234.349 200.474,234.691 200.781,234.745 200.781 C 234.798 200.781,234.544 200.474,234.180 200.098 C 233.815 199.722,233.473 199.414,233.419 199.414 C 233.366 199.414,233.620 199.722,233.984 200.098 M166.396 200.342 L 165.723 201.074 166.455 200.401 C 166.858 200.031,167.188 199.701,167.188 199.669 C 167.188 199.520,167.022 199.660,166.396 200.342 " stroke="none" fill="#59d5da" fill-rule="evenodd"></path></g></svg>